<mxfile host="app.diagrams.net" agent="Mozilla/5.0 (X11; Linux x86_64) AppleWebKit/537.36 (KHTML, like Gecko) Chrome/129.0.0.0 Safari/537.36" version="26.0.2">
  <diagram name="第 1 页" id="muQ5gnNJAKjn1zVVN2c4">
    <mxGraphModel dx="1362" dy="759" grid="1" gridSize="10" guides="1" tooltips="1" connect="1" arrows="1" fold="1" page="1" pageScale="1" pageWidth="827" pageHeight="1169" math="0" shadow="0">
      <root>
        <mxCell id="0" />
        <mxCell id="1" parent="0" />
        <mxCell id="RT6_G33Tlkx_qQY_LuAb-4" value="" style="edgeStyle=orthogonalEdgeStyle;rounded=0;orthogonalLoop=1;jettySize=auto;html=1;" edge="1" parent="1" source="RT6_G33Tlkx_qQY_LuAb-1" target="RT6_G33Tlkx_qQY_LuAb-3">
          <mxGeometry relative="1" as="geometry" />
        </mxCell>
        <mxCell id="RT6_G33Tlkx_qQY_LuAb-1" value="test" style="rounded=1;whiteSpace=wrap;html=1;" vertex="1" parent="1">
          <mxGeometry x="180" y="190" width="220" height="110" as="geometry" />
        </mxCell>
        <mxCell id="RT6_G33Tlkx_qQY_LuAb-3" value="test" style="ellipse;whiteSpace=wrap;html=1;rounded=1;" vertex="1" parent="1">
          <mxGeometry x="550" y="205" width="80" height="80" as="geometry" />
        </mxCell>
      </root>
    </mxGraphModel>
  </diagram>
</mxfile>
